<svg width="190" height="55" viewBox="0 0 190 55" fill="none" xmlns="http://www.w3.org/2000/svg">
<path d="M88 3H174V33" stroke="#C6360F" stroke-width="4"/>
<path d="M88 48L2 48V18" stroke="#C6360F" stroke-width="4"/>
<path d="M26.8239 6.09091H35.142V30.2273C35.1307 32.4886 34.5909 34.4659 33.5227 36.1591C32.4545 37.8409 30.9773 39.1477 29.0909 40.0795C27.2159 41.0114 25.0455 41.4773 22.5795 41.4773C20.3977 41.4773 18.4148 41.0966 16.6307 40.3352C14.858 39.5739 13.4432 38.392 12.3864 36.7898C11.3409 35.1875 10.8239 33.1364 10.8352 30.6364H19.2386C19.2727 31.5341 19.4432 32.3011 19.75 32.9375C20.0682 33.5625 20.5057 34.0341 21.0625 34.3523C21.6193 34.6705 22.2841 34.8295 23.0568 34.8295C23.8636 34.8295 24.5455 34.6591 25.1023 34.3182C25.6591 33.9659 26.0795 33.4489 26.3636 32.767C26.6591 32.0852 26.8125 31.2386 26.8239 30.2273V6.09091ZM47.2436 41.4432C45.5731 41.4432 44.0902 41.1648 42.7947 40.608C41.5106 40.0398 40.4936 39.1875 39.7436 38.0511C39.005 36.9034 38.6356 35.4659 38.6356 33.7386C38.6356 32.2841 38.8913 31.0568 39.4027 30.0568C39.9141 29.0568 40.6186 28.2443 41.5163 27.6193C42.4141 26.9943 43.4481 26.5227 44.6186 26.2045C45.7891 25.875 47.0391 25.6534 48.3686 25.5398C49.8572 25.4034 51.0561 25.2614 51.9652 25.1136C52.8743 24.9545 53.5334 24.733 53.9425 24.4489C54.3629 24.1534 54.5731 23.7386 54.5731 23.2045V23.1193C54.5731 22.2443 54.272 21.5682 53.6697 21.0909C53.0675 20.6136 52.255 20.375 51.2322 20.375C50.13 20.375 49.2436 20.6136 48.5731 21.0909C47.9027 21.5682 47.4766 22.2273 47.2947 23.0682L39.6072 22.7955C39.8345 21.2045 40.4197 19.7841 41.3629 18.5341C42.3175 17.2727 43.6243 16.2841 45.2834 15.5682C46.9538 14.8409 48.9595 14.4773 51.3004 14.4773C52.9709 14.4773 54.5106 14.6761 55.9197 15.0739C57.3288 15.4602 58.5561 16.0284 59.6016 16.7784C60.647 17.517 61.4538 18.4261 62.022 19.5057C62.6016 20.5852 62.8913 21.8182 62.8913 23.2045V41H55.0504V37.3523H54.8459C54.38 38.2386 53.7834 38.9886 53.0561 39.6023C52.3402 40.2159 51.4936 40.6761 50.5163 40.983C49.5504 41.2898 48.4595 41.4432 47.2436 41.4432ZM49.8175 35.9886C50.7152 35.9886 51.522 35.8068 52.2379 35.4432C52.9652 35.0795 53.5447 34.5795 53.9766 33.9432C54.4084 33.2955 54.6243 32.5455 54.6243 31.6932V29.2045C54.3856 29.3295 54.0959 29.4432 53.755 29.5455C53.4254 29.6477 53.0618 29.7443 52.6641 29.8352C52.2663 29.9261 51.8572 30.0057 51.4368 30.0739C51.0163 30.142 50.6129 30.2045 50.2266 30.2614C49.4425 30.3864 48.772 30.5795 48.2152 30.8409C47.6697 31.1023 47.2493 31.4432 46.9538 31.8636C46.6697 32.2727 46.5277 32.7614 46.5277 33.3295C46.5277 34.1932 46.8345 34.8523 47.4481 35.3068C48.0731 35.7614 48.8629 35.9886 49.8175 35.9886ZM67.4119 41V14.8182H75.5085V19.5909H75.7812C76.2585 17.8636 77.0369 16.5795 78.1165 15.7386C79.196 14.8864 80.4517 14.4602 81.8835 14.4602C82.2699 14.4602 82.6676 14.4886 83.0767 14.5455C83.4858 14.5909 83.8665 14.6648 84.2187 14.767V22.0114C83.821 21.875 83.2983 21.767 82.6506 21.6875C82.0142 21.608 81.446 21.5682 80.946 21.5682C79.9574 21.5682 79.0653 21.7898 78.2699 22.233C77.4858 22.6648 76.8665 23.2727 76.4119 24.0568C75.9687 24.8295 75.7471 25.7386 75.7471 26.7841V41H67.4119ZM113.234 14.8182L104.251 41H94.7052L85.7393 14.8182H94.5177L99.3416 32.8523H99.6143L104.455 14.8182H113.234ZM122.531 41.4432C120.861 41.4432 119.378 41.1648 118.082 40.608C116.798 40.0398 115.781 39.1875 115.031 38.0511C114.293 36.9034 113.923 35.4659 113.923 33.7386C113.923 32.2841 114.179 31.0568 114.69 30.0568C115.202 29.0568 115.906 28.2443 116.804 27.6193C117.702 26.9943 118.736 26.5227 119.906 26.2045C121.077 25.875 122.327 25.6534 123.656 25.5398C125.145 25.4034 126.344 25.2614 127.253 25.1136C128.162 24.9545 128.821 24.733 129.23 24.4489C129.651 24.1534 129.861 23.7386 129.861 23.2045V23.1193C129.861 22.2443 129.56 21.5682 128.957 21.0909C128.355 20.6136 127.543 20.375 126.52 20.375C125.418 20.375 124.531 20.6136 123.861 21.0909C123.19 21.5682 122.764 22.2273 122.582 23.0682L114.895 22.7955C115.122 21.2045 115.707 19.7841 116.651 18.5341C117.605 17.2727 118.912 16.2841 120.571 15.5682C122.241 14.8409 124.247 14.4773 126.588 14.4773C128.259 14.4773 129.798 14.6761 131.207 15.0739C132.616 15.4602 133.844 16.0284 134.889 16.7784C135.935 17.517 136.741 18.4261 137.31 19.5057C137.889 20.5852 138.179 21.8182 138.179 23.2045V41H130.338V37.3523H130.133C129.668 38.2386 129.071 38.9886 128.344 39.6023C127.628 40.2159 126.781 40.6761 125.804 40.983C124.838 41.2898 123.747 41.4432 122.531 41.4432ZM125.105 35.9886C126.003 35.9886 126.81 35.8068 127.526 35.4432C128.253 35.0795 128.832 34.5795 129.264 33.9432C129.696 33.2955 129.912 32.5455 129.912 31.6932V29.2045C129.673 29.3295 129.384 29.4432 129.043 29.5455C128.713 29.6477 128.349 29.7443 127.952 29.8352C127.554 29.9261 127.145 30.0057 126.724 30.0739C126.304 30.142 125.901 30.2045 125.514 30.2614C124.73 30.3864 124.06 30.5795 123.503 30.8409C122.957 31.1023 122.537 31.4432 122.241 31.8636C121.957 32.2727 121.815 32.7614 121.815 33.3295C121.815 34.1932 122.122 34.8523 122.736 35.3068C123.361 35.7614 124.151 35.9886 125.105 35.9886ZM165.557 22.8125L157.904 23.017C157.825 22.4716 157.609 21.9886 157.256 21.5682C156.904 21.1364 156.444 20.8011 155.876 20.5625C155.319 20.3125 154.671 20.1875 153.932 20.1875C152.967 20.1875 152.143 20.3807 151.461 20.767C150.79 21.1534 150.461 21.6761 150.472 22.3352C150.461 22.8466 150.665 23.2898 151.086 23.6648C151.518 24.0398 152.285 24.3409 153.387 24.5682L158.432 25.5227C161.046 26.0227 162.989 26.8523 164.262 28.0114C165.546 29.1705 166.194 30.7045 166.205 32.6136C166.194 34.4091 165.66 35.9716 164.603 37.3011C163.557 38.6307 162.126 39.6648 160.307 40.4034C158.489 41.1307 156.41 41.4943 154.069 41.4943C150.33 41.4943 147.381 40.7273 145.222 39.1932C143.075 37.6477 141.847 35.5795 141.54 32.9886L149.773 32.7841C149.955 33.7386 150.427 34.4659 151.188 34.9659C151.95 35.4659 152.921 35.7159 154.103 35.7159C155.171 35.7159 156.04 35.517 156.711 35.1193C157.381 34.7216 157.722 34.1932 157.734 33.5341C157.722 32.9432 157.461 32.4716 156.95 32.1193C156.438 31.7557 155.637 31.4716 154.546 31.267L149.978 30.3977C147.353 29.9205 145.398 29.0398 144.114 27.7557C142.83 26.4602 142.194 24.8125 142.205 22.8125C142.194 21.0625 142.66 19.5682 143.603 18.3295C144.546 17.0795 145.887 16.125 147.626 15.4659C149.364 14.8068 151.415 14.4773 153.779 14.4773C157.325 14.4773 160.12 15.2216 162.165 16.7102C164.211 18.1875 165.342 20.2216 165.557 22.8125Z" fill="#C6360F"/>
</svg>
