<svg width="190" height="56" viewBox="0 0 190 56" fill="none" xmlns="http://www.w3.org/2000/svg">
<path d="M88 3.5H174V33.5" stroke="#5A1807" stroke-width="4"/>
<path d="M88 48.5L2 48.5V18.5" stroke="#5A1807" stroke-width="4"/>
<path d="M26.8239 6.59091H35.142V30.7273C35.1307 32.9886 34.5909 34.9659 33.5227 36.6591C32.4545 38.3409 30.9773 39.6477 29.0909 40.5795C27.2159 41.5114 25.0455 41.9773 22.5795 41.9773C20.3977 41.9773 18.4148 41.5966 16.6307 40.8352C14.858 40.0739 13.4432 38.892 12.3864 37.2898C11.3409 35.6875 10.8239 33.6364 10.8352 31.1364H19.2386C19.2727 32.0341 19.4432 32.8011 19.75 33.4375C20.0682 34.0625 20.5057 34.5341 21.0625 34.8523C21.6193 35.1705 22.2841 35.3295 23.0568 35.3295C23.8636 35.3295 24.5455 35.1591 25.1023 34.8182C25.6591 34.4659 26.0795 33.9489 26.3636 33.267C26.6591 32.5852 26.8125 31.7386 26.8239 30.7273V6.59091ZM47.2436 41.9432C45.5731 41.9432 44.0902 41.6648 42.7947 41.108C41.5106 40.5398 40.4936 39.6875 39.7436 38.5511C39.005 37.4034 38.6356 35.9659 38.6356 34.2386C38.6356 32.7841 38.8913 31.5568 39.4027 30.5568C39.9141 29.5568 40.6186 28.7443 41.5163 28.1193C42.4141 27.4943 43.4481 27.0227 44.6186 26.7045C45.7891 26.375 47.0391 26.1534 48.3686 26.0398C49.8572 25.9034 51.0561 25.7614 51.9652 25.6136C52.8743 25.4545 53.5334 25.233 53.9425 24.9489C54.3629 24.6534 54.5731 24.2386 54.5731 23.7045V23.6193C54.5731 22.7443 54.272 22.0682 53.6697 21.5909C53.0675 21.1136 52.255 20.875 51.2322 20.875C50.13 20.875 49.2436 21.1136 48.5731 21.5909C47.9027 22.0682 47.4766 22.7273 47.2947 23.5682L39.6072 23.2955C39.8345 21.7045 40.4197 20.2841 41.3629 19.0341C42.3175 17.7727 43.6243 16.7841 45.2834 16.0682C46.9538 15.3409 48.9595 14.9773 51.3004 14.9773C52.9709 14.9773 54.5106 15.1761 55.9197 15.5739C57.3288 15.9602 58.5561 16.5284 59.6016 17.2784C60.647 18.017 61.4538 18.9261 62.022 20.0057C62.6016 21.0852 62.8913 22.3182 62.8913 23.7045V41.5H55.0504V37.8523H54.8459C54.38 38.7386 53.7834 39.4886 53.0561 40.1023C52.3402 40.7159 51.4936 41.1761 50.5163 41.483C49.5504 41.7898 48.4595 41.9432 47.2436 41.9432ZM49.8175 36.4886C50.7152 36.4886 51.522 36.3068 52.2379 35.9432C52.9652 35.5795 53.5447 35.0795 53.9766 34.4432C54.4084 33.7955 54.6243 33.0455 54.6243 32.1932V29.7045C54.3856 29.8295 54.0959 29.9432 53.755 30.0455C53.4254 30.1477 53.0618 30.2443 52.6641 30.3352C52.2663 30.4261 51.8572 30.5057 51.4368 30.5739C51.0163 30.642 50.6129 30.7045 50.2266 30.7614C49.4425 30.8864 48.772 31.0795 48.2152 31.3409C47.6697 31.6023 47.2493 31.9432 46.9538 32.3636C46.6697 32.7727 46.5277 33.2614 46.5277 33.8295C46.5277 34.6932 46.8345 35.3523 47.4481 35.8068C48.0731 36.2614 48.8629 36.4886 49.8175 36.4886ZM67.4119 41.5V15.3182H75.5085V20.0909H75.7812C76.2585 18.3636 77.0369 17.0795 78.1165 16.2386C79.196 15.3864 80.4517 14.9602 81.8835 14.9602C82.2699 14.9602 82.6676 14.9886 83.0767 15.0455C83.4858 15.0909 83.8665 15.1648 84.2187 15.267V22.5114C83.821 22.375 83.2983 22.267 82.6506 22.1875C82.0142 22.108 81.446 22.0682 80.946 22.0682C79.9574 22.0682 79.0653 22.2898 78.2699 22.733C77.4858 23.1648 76.8665 23.7727 76.4119 24.5568C75.9687 25.3295 75.7471 26.2386 75.7471 27.2841V41.5H67.4119ZM113.234 15.3182L104.251 41.5H94.7052L85.7393 15.3182H94.5177L99.3416 33.3523H99.6143L104.455 15.3182H113.234ZM122.531 41.9432C120.861 41.9432 119.378 41.6648 118.082 41.108C116.798 40.5398 115.781 39.6875 115.031 38.5511C114.293 37.4034 113.923 35.9659 113.923 34.2386C113.923 32.7841 114.179 31.5568 114.69 30.5568C115.202 29.5568 115.906 28.7443 116.804 28.1193C117.702 27.4943 118.736 27.0227 119.906 26.7045C121.077 26.375 122.327 26.1534 123.656 26.0398C125.145 25.9034 126.344 25.7614 127.253 25.6136C128.162 25.4545 128.821 25.233 129.23 24.9489C129.651 24.6534 129.861 24.2386 129.861 23.7045V23.6193C129.861 22.7443 129.56 22.0682 128.957 21.5909C128.355 21.1136 127.543 20.875 126.52 20.875C125.418 20.875 124.531 21.1136 123.861 21.5909C123.19 22.0682 122.764 22.7273 122.582 23.5682L114.895 23.2955C115.122 21.7045 115.707 20.2841 116.651 19.0341C117.605 17.7727 118.912 16.7841 120.571 16.0682C122.241 15.3409 124.247 14.9773 126.588 14.9773C128.259 14.9773 129.798 15.1761 131.207 15.5739C132.616 15.9602 133.844 16.5284 134.889 17.2784C135.935 18.017 136.741 18.9261 137.31 20.0057C137.889 21.0852 138.179 22.3182 138.179 23.7045V41.5H130.338V37.8523H130.133C129.668 38.7386 129.071 39.4886 128.344 40.1023C127.628 40.7159 126.781 41.1761 125.804 41.483C124.838 41.7898 123.747 41.9432 122.531 41.9432ZM125.105 36.4886C126.003 36.4886 126.81 36.3068 127.526 35.9432C128.253 35.5795 128.832 35.0795 129.264 34.4432C129.696 33.7955 129.912 33.0455 129.912 32.1932V29.7045C129.673 29.8295 129.384 29.9432 129.043 30.0455C128.713 30.1477 128.349 30.2443 127.952 30.3352C127.554 30.4261 127.145 30.5057 126.724 30.5739C126.304 30.642 125.901 30.7045 125.514 30.7614C124.73 30.8864 124.06 31.0795 123.503 31.3409C122.957 31.6023 122.537 31.9432 122.241 32.3636C121.957 32.7727 121.815 33.2614 121.815 33.8295C121.815 34.6932 122.122 35.3523 122.736 35.8068C123.361 36.2614 124.151 36.4886 125.105 36.4886ZM165.557 23.3125L157.904 23.517C157.825 22.9716 157.609 22.4886 157.256 22.0682C156.904 21.6364 156.444 21.3011 155.876 21.0625C155.319 20.8125 154.671 20.6875 153.932 20.6875C152.967 20.6875 152.143 20.8807 151.461 21.267C150.79 21.6534 150.461 22.1761 150.472 22.8352C150.461 23.3466 150.665 23.7898 151.086 24.1648C151.518 24.5398 152.285 24.8409 153.387 25.0682L158.432 26.0227C161.046 26.5227 162.989 27.3523 164.262 28.5114C165.546 29.6705 166.194 31.2045 166.205 33.1136C166.194 34.9091 165.66 36.4716 164.603 37.8011C163.557 39.1307 162.126 40.1648 160.307 40.9034C158.489 41.6307 156.41 41.9943 154.069 41.9943C150.33 41.9943 147.381 41.2273 145.222 39.6932C143.075 38.1477 141.847 36.0795 141.54 33.4886L149.773 33.2841C149.955 34.2386 150.427 34.9659 151.188 35.4659C151.95 35.9659 152.921 36.2159 154.103 36.2159C155.171 36.2159 156.04 36.017 156.711 35.6193C157.381 35.2216 157.722 34.6932 157.734 34.0341C157.722 33.4432 157.461 32.9716 156.95 32.6193C156.438 32.2557 155.637 31.9716 154.546 31.767L149.978 30.8977C147.353 30.4205 145.398 29.5398 144.114 28.2557C142.83 26.9602 142.194 25.3125 142.205 23.3125C142.194 21.5625 142.66 20.0682 143.603 18.8295C144.546 17.5795 145.887 16.625 147.626 15.9659C149.364 15.3068 151.415 14.9773 153.779 14.9773C157.325 14.9773 160.12 15.7216 162.165 17.2102C164.211 18.6875 165.342 20.7216 165.557 23.3125Z" fill="#5A1807"/>
</svg>
