<svg width="42" height="52" viewBox="0 0 42 52" fill="none" xmlns="http://www.w3.org/2000/svg">
<path d="M25 50H2L2 20" stroke="#5A1807" stroke-width="4"/>
<path d="M17 2L40 2V32" stroke="#5A1807" stroke-width="4"/>
<path d="M22.8239 8.09091H31.142V32.2273C31.1307 34.4886 30.5909 36.4659 29.5227 38.1591C28.4545 39.8409 26.9773 41.1477 25.0909 42.0795C23.2159 43.0114 21.0455 43.4773 18.5795 43.4773C16.3977 43.4773 14.4148 43.0966 12.6307 42.3352C10.858 41.5739 9.44318 40.392 8.38636 38.7898C7.34091 37.1875 6.82386 35.1364 6.83523 32.6364H15.2386C15.2727 33.5341 15.4432 34.3011 15.75 34.9375C16.0682 35.5625 16.5057 36.0341 17.0625 36.3523C17.6193 36.6705 18.2841 36.8295 19.0568 36.8295C19.8636 36.8295 20.5455 36.6591 21.1023 36.3182C21.6591 35.9659 22.0795 35.4489 22.3636 34.767C22.6591 34.0852 22.8125 33.2386 22.8239 32.2273V8.09091Z" fill="#5A1807"/>
</svg>
